<svg width="26" height="26" viewBox="0 0 26 26" fill="none" xmlns="http://www.w3.org/2000/svg">
<path d="M12.5918 3.49517C12.989 3.17497 13.4866 3 14 3C14.5134 3 15.011 3.17497 15.4082 3.49517L23.1582 9.71401C23.4219 9.92679 23.6343 10.1946 23.7799 10.4981C23.9254 10.8016 24.0006 11.1331 24 11.4687V22.7491C24 23.9921 22.9929 24.9994 21.75 24.9994H18.75C17.5071 24.9994 16.5 23.9921 16.5 22.7491V17.3286C16.5 16.9147 16.1647 16.5789 15.75 16.5789H12.25C11.8359 16.5789 11.5 16.9147 11.5 17.3286V22.7497C11.5 23.9927 10.4929 25 9.25 25H6.25C5.00765 24.9994 4 23.9921 4 22.7491V11.4687C3.99937 11.1331 4.07456 10.8016 4.22015 10.4981C4.36573 10.1946 4.57806 9.92679 4.84177 9.71401L12.5918 3.49517ZM14.4694 4.66518C14.337 4.55852 14.1711 4.50024 14 4.50024C13.8289 4.50024 13.663 4.55852 13.5306 4.66518L5.78059 10.8834C5.69266 10.9544 5.62187 11.0438 5.57334 11.145C5.52481 11.2462 5.49976 11.3568 5.5 11.4687V22.7491C5.5 23.1636 5.8353 23.4994 6.25 23.4994H9.25C9.66412 23.4994 10 23.1636 10 22.7491V17.3286C10 16.0863 11.0076 15.0789 12.25 15.0789H15.75C16.9924 15.0789 18 16.0863 18 17.3286V22.7497C18 23.1642 18.3353 23.5 18.75 23.5H21.75C22.1641 23.5 22.5 23.1642 22.5 22.7497V11.4687C22.5003 11.3569 22.4753 11.2464 22.4268 11.1452C22.3782 11.0441 22.3074 10.9548 22.2194 10.884L14.4694 4.6646V4.66518Z" fill="black"/>
</svg>
